<svg id="Lager_1" data-name="Lager 1" xmlns="http://www.w3.org/2000/svg" viewBox="0 0 495.98 264"><defs><style>.cls-1{fill:#000100;}.cls-2{fill:#1d1d1b;}</style></defs><title>grahlie</title><g id="top-g"><polygon points="286.84 43.84 450 43.84 490 6.42 249.25 6.54 286.84 43.84"/><path d="M300.84,333.45H461.21a11.27,11.27,0,0,0,8.64-3.26l38.39-35.93c3.84-3.59.84-10.25-4.24-10.24l-81.12,0L293,284.13l-29.73,0A6.07,6.07,0,0,0,259,294.39l37.59,37.3c5.49,5.45,14-3,8.49-8.49l-37.59-37.3-4.24,10.24,81.12,0L474.26,296,504,296l-4.24-10.24-40,37.42,4.24-1.76H300.84C293.12,321.45,293.1,333.45,300.84,333.45Z" transform="translate(-13.99 -283.6)"/></g><g id="right-m"><polygon points="211.17 58.77 211.17 216.96 248.65 257.85 449.5 257.85 489.5 217.47 397.29 125.74 351.35 125.96 447 220.9 250.36 220.96 250.36 48.43 211.76 5.96 128.75 74.96 44.79 5.96 6 48.43 6.03 257.85 44.79 217.92 45.28 58.77 129.72 122.81 211.17 58.77"/><path d="M219.17,342.38V494.71c0,3.85-.56,7.38,2.14,10.51,5.47,6.35,11.35,12.39,17,18.57,6.28,6.86,12.41,13.91,18.87,20.6,2.68,2.77,5.2,3.06,8.76,3.06H456.63c2.77,0,6.55.59,9.18-.52,2.18-.92,3.94-3.27,5.57-4.91l9.84-9.93,22.45-22.66,4.07-4.11a6.09,6.09,0,0,0,0-8.49l-50.69-50.42-32-31.86c-2.78-2.76-5.51-5.58-8.34-8.29-2.36-2.27-4.78-2.92-8-2.9l-43.32.21c-5.17,0-8,6.56-4.24,10.24l83.63,83,12,11.93L461,498.5l-66.35,0-105.86,0H264.35l6,6V335.25c0-3.64-.59-6.18-3.17-9L230,285.32c-2.32-2.55-6.09-2-8.49,0L149,345.62l-10.48,8.71H147L73.39,293.84,63,285.32c-2.41-2-6.13-2.58-8.49,0-12.62,13.81-25.47,27.45-37.86,41.46C13.74,330.1,14,333,14,337V541.45c0,5.14,6.6,8,10.24,4.24l33.22-34.22c3-3.05,7.08-6,7.31-10.55,0.19-3.74,0-7.54,0-11.29l0.34-113.06,0.1-34.21-9,5.18,74,56.1,10.47,7.94c2.28,1.73,5.34.58,7.27-.94l71.26-56,10.19-8c6.07-4.77-2.48-13.21-8.49-8.49l-71.26,56-10.19,8,7.27-.94-74-56.1L62.3,337.19c-3.77-2.86-9,1.05-9,5.18L52.85,481.51l-0.06,20,1.76-4.24L15.78,537.21,26,541.45V332l-1.76,4.24L63,293.81H54.54l73.59,60.49,10.36,8.51a6.22,6.22,0,0,0,8.49,0l72.54-60.29L230,293.81h-8.49l38.6,42.47L258.35,332V504.56a6.09,6.09,0,0,0,6,6l66.35,0,105.86,0H461a6.07,6.07,0,0,0,4.24-10.24l-83.63-83-12-11.93-4.24,10.24,45.93-.22L407,413.59,487.89,494l11.37,11.31v-8.49l-40,40.37,4.24-1.76H262.64l4.24,1.76-37.47-40.89,1.76,4.24V342.38C231.17,334.66,219.17,334.64,219.17,342.38Z" transform="translate(-13.99 -283.6)"/></g></svg>
